<?xml version="1.0" encoding="utf-8"?>
<!-- Generator: Adobe Illustrator 22.0.0, SVG Export Plug-In . SVG Version: 6.00 Build 0)  -->
<svg version="1.1" id="Layer_1" xmlns="http://www.w3.org/2000/svg" xmlns:xlink="http://www.w3.org/1999/xlink" x="0px" y="0px"
	 width="64px" height="64px" viewBox="0 0 64 64" style="enable-background:new 0 0 64 64;" xml:space="preserve">
<style type="text/css">
	.st0{fill:#005430;}
	.st1{fill:#FFFFFF;}
</style>
<g>
	<path class="st0" d="M64,43c0,6.1-3.4,11-10,11H10C3.4,54,0,49.1,0,43V21c0-6.1,3.4-11,10-11h44c6.6,0,10,4.9,10,11V43"/>
</g>
<g>
	<path class="st1" d="M46.9,43.9c0-0.6-0.6-1-1.4-1h-3.7c0,0,0.2-0.5,0.2-0.8c0-0.2-0.3-0.4-0.6-0.4c-0.3,0-0.6,0.2-0.6,0.4
		c0,0.2,0.2,0.4,0.4,0.4c0,0,0.1,0,0.2,0h0c0,0.1,0,0.2-0.1,0.3H17.1c0,0,1.1,0.8,2.3,0.9H41c0,0-0.2,0.5-0.2,0.8
		c0,0.2,0.3,0.4,0.6,0.4c0.2,0,0.5-0.1,0.5-0.3h1.3c0.1,0.2,0.2,0.3,0.4,0.3c0.2,0,0.4-0.1,0.4-0.3h1.2c0.1,0.2,0.2,0.3,0.4,0.3
		c0,0,0,0,0,0l0,0c0,0,0,0,0,0c0,0,0,0,0,0C46.4,44.8,46.9,44.4,46.9,43.9z M45.2,44.3H44C44,44.2,43.8,44,43.6,44
		c-0.2,0-0.4,0.1-0.4,0.3h-1.3c-0.1-0.1-0.2-0.2-0.4-0.3c0,0-0.1,0-0.2,0h0c0-0.1,0-0.2,0.1-0.3h4.1c0.2,0,0.3,0.2,0.1,0.3
		C45.5,44,45.3,44.2,45.2,44.3z"/>
	<path class="st1" d="M45,31.6c0.9-0.4,1.8-0.7,2.8-1.1c-0.1,0.1-0.1,0.3-0.3,0.3c-0.9,0.3-1.7,0.7-2.6,1c-0.1,0-0.1,0-0.2,0.1
		C44.8,31.8,44.8,31.7,45,31.6C44.9,31.6,45,31.6,45,31.6L45,31.6z M42.1,30.4c0.2,0.1,0.4,0.3,0.5,0.4c0.2,0.3,0.3,0.7,0.2,1
		c0,0,0,0-0.1,0.1c0-0.2,0.1-0.4,0-0.5c-0.1-0.3-0.3-0.5-0.6-0.6C42.1,30.6,42.1,30.4,42.1,30.4L42.1,30.4z M34.5,30.2
		c0.1-0.1,0.3-0.1,0.5-0.1c0.2,0,0.3,0,0.5,0.1c0.1,0.1,0,0.1-0.1,0.2c-0.3,0.2-0.6,0.3-0.8,0.5c-0.1,0.1,0,0.1,0,0.2
		c0.1,0,0.2,0,0.4,0c0.3,0,0.6-0.1,0.8-0.2c0.1,0,0.1-0.1,0.2-0.1c-0.2,0.2-0.3,0.3-0.5,0.4c-0.2,0.1-0.3,0.2-0.5,0.2
		c-0.2,0-0.3,0-0.5-0.1c-0.2-0.1-0.2-0.2-0.2-0.4c0-0.1,0.1-0.1,0.2-0.2c0.2-0.1,0.4-0.2,0.6-0.4c-0.1,0-0.3,0-0.4,0
		c-0.1,0-0.2,0.1-0.2,0.1C34.4,30.4,34.4,30.3,34.5,30.2L34.5,30.2z M28.9,30c0.1,0,0.3,0,0.4,0c0.1,0.1,0.1,0.2,0.1,0.3
		c-0.1,0.1-0.1,0.1-0.2,0.2c-0.1,0-0.2,0-0.3,0c-0.1,0-0.1,0-0.2,0.1c0,0.1,0,0.1,0,0.2c0.1,0.2,0.2,0.5,0.2,0.7
		c0,0.1,0,0.2-0.1,0.3c0-0.1-0.1-0.3-0.1-0.4c-0.1-0.2-0.2-0.5-0.2-0.7c0-0.1,0.1-0.2,0.1-0.3c0.1-0.1,0.3-0.2,0.5-0.2
		c0,0-0.1-0.1-0.2-0.1c-0.1,0-0.2,0.1-0.2,0.1C28.7,30.2,28.8,30.1,28.9,30L28.9,30z M37,29.9C37,29.9,37,29.9,37,29.9
		c0,0,0,0.1-0.1,0.1c-0.1,0.2-0.2,0.3-0.2,0.5c0,0.1,0.1,0.2,0.2,0.2c0.1,0,0.1-0.1,0.1-0.1c0,0.1,0,0.3-0.2,0.4
		c-0.1,0-0.2-0.1-0.2-0.2C36.6,30.5,36.7,30.2,37,29.9z M13.1,28.1c0.1-0.1,0.2-0.2,0.3-0.3c-0.2,0.3-0.3,0.5-0.4,0.8
		c0,0.1,0,0.2,0.1,0.3c0.1,0.1,0.2,0.1,0.3,0.1c0.1,0,0.2-0.1,0.3-0.2c0,0.1,0,0.2,0,0.2c-0.1,0.2-0.1,0.3-0.3,0.4
		c-0.1,0.1-0.3,0-0.4,0c-0.2-0.1-0.2-0.3-0.1-0.4C12.8,28.7,13,28.4,13.1,28.1L13.1,28.1z M24.9,27c0-0.1,0.1-0.2,0.2-0.1
		c0.1,0,0.3,0.1,0.3,0.2c0,0-0.1,0.1-0.1,0.1c0-0.1-0.1-0.2-0.2-0.2c-0.1,0-0.2,0.1-0.3,0.2c-0.1,0.2-0.1,0.5-0.1,0.7
		c0,0-0.1,0-0.1,0c0-0.2-0.1-0.4-0.2-0.6c0-0.1-0.1,0-0.2-0.1c-0.1,0-0.2-0.1-0.2-0.2c0-0.1,0-0.1,0-0.2c0.1,0,0.2,0,0.2,0.1
		c0.2,0.1,0.3,0.3,0.4,0.5C24.7,27.4,24.7,27.2,24.9,27L24.9,27z M44.2,26.4c0.1,0,0.3,0,0.4,0.1c0.2,0.1,0.3,0.3,0.5,0.4
		c0.1,0.1,0.1,0.2,0.1,0.3c0,0.1,0,0.2-0.1,0.2c-0.1,0.1-0.2,0.1-0.3,0c-0.1,0-0.2-0.1-0.3-0.1c-0.1,0.3-0.4,0.5-0.7,0.7
		c-0.2,0.1-0.4,0.2-0.6,0.3c-0.1,0.1-0.3,0.1-0.4,0.1s-0.3,0.1-0.4,0.1c0.1,0,0.2-0.1,0.2-0.1c0.4-0.2,0.8-0.4,1.2-0.6
		c0.2-0.1,0.4-0.3,0.5-0.5c-0.1,0-0.2,0-0.3,0c-0.1-0.2-0.1-0.4,0.1-0.5c-0.1,0-0.1-0.1-0.1-0.2C44,26.5,44.1,26.5,44.2,26.4
		 M44.5,26.8c0,0.1,0,0.2,0,0.4c0.1,0,0.2,0.1,0.4,0c0.1,0,0.1-0.1,0-0.1C44.8,27,44.7,26.9,44.5,26.8 M44.1,27
		c0.1,0.1,0.2,0.1,0.3,0.1c0-0.1,0.1-0.1,0-0.2c0-0.1-0.1-0.1-0.2-0.1C44.2,26.9,44.2,27,44.1,27L44.1,27z M36.4,26.3
		c0.1-0.1,0.2-0.1,0.3-0.1c0.1,0,0.1,0.1,0.1,0.1c0,0.1,0,0.2,0,0.4c0,0,0.1,0,0.1,0.1c0,0.1,0,0.2,0,0.2c-0.1,0-0.1-0.1-0.2-0.1
		c-0.2,0.3-0.5,0.5-0.9,0.7c-0.2,0.1-0.4,0.1-0.6,0.1c0.4-0.1,0.8-0.3,1.1-0.5c0.1-0.1,0.2-0.2,0.3-0.3c-0.1-0.1-0.1-0.1-0.2-0.2
		C36.3,26.5,36.3,26.4,36.4,26.3 M36.5,26.4c0,0.1,0.1,0.1,0.2,0.2c0-0.1,0.1-0.1,0-0.2C36.6,26.3,36.5,26.3,36.5,26.4z M13.2,27.1
		c0.8-0.4,1.7-0.8,2.5-1.2c0,0.1-0.1,0.3-0.3,0.4c-0.8,0.4-1.6,0.8-2.3,1.1c0,0,0,0-0.1,0C13.1,27.3,13.1,27.2,13.2,27.1L13.2,27.1z
		 M30.6,24.9c0.1-0.1,0.1-0.1,0.2-0.2c-0.1,0.1,0,0.2,0,0.3c0,0.1,0.1,0.2,0.1,0.4c0,0.1,0.2,0.1,0.3,0.1c0.1,0,0.1,0,0.1-0.1
		c-0.1-0.1-0.1-0.3-0.2-0.4c0-0.1,0.1-0.2,0.1-0.3c0,0,0.1,0,0.1,0c0,0.2,0.1,0.3,0.2,0.5c0,0.2,0,0.3-0.1,0.5
		c-0.1,0.1-0.2,0.1-0.3,0.1c-0.2,0-0.3-0.1-0.4-0.2c-0.1,0.1-0.2,0.2-0.4,0.3c-0.1,0-0.3,0-0.4-0.1c-0.1-0.1-0.1-0.2-0.1-0.4
		c0-0.2,0.1-0.4,0.3-0.5c0,0,0,0,0.1,0c0,0,0,0,0,0c-0.1,0.2-0.1,0.4,0,0.6c0,0.1,0.1,0.1,0.2,0.1c0.1,0,0.2-0.1,0.3-0.1
		C30.6,25.3,30.6,25.1,30.6,24.9L30.6,24.9z M14.2,24.5c0.2,0,0.4,0.1,0.5,0.2c0.2,0.1,0.3,0.3,0.4,0.5c0,0.1,0,0.1,0,0.2
		c0,0.1,0,0.2-0.1,0.2c-0.1,0.1-0.2,0-0.3,0c-0.1,0-0.2-0.1-0.2-0.1c-0.1,0.3-0.4,0.5-0.7,0.6c-0.2,0.1-0.5,0.2-0.7,0.3
		c-0.2,0.1-0.4,0.1-0.6,0.1c-0.1,0-0.2,0-0.2,0c0,0,0.1,0,0.1,0c0.4-0.2,0.8-0.4,1.2-0.6c0.3-0.2,0.5-0.3,0.7-0.5
		c-0.1,0-0.2,0-0.3,0C14,25.2,14,25,14.1,24.9C14,24.8,14,24.8,14,24.7C14,24.6,14.1,24.5,14.2,24.5 M14.5,24.9c0,0.1,0,0.2,0,0.4
		c0.1,0,0.2,0.1,0.4,0c0.1,0,0-0.1,0-0.1C14.8,25.1,14.7,25,14.5,24.9 M14.2,25c0,0-0.1,0.1-0.1,0.2c0.1,0.1,0.2,0.1,0.3,0.1
		c0,0,0-0.1,0-0.1c0-0.1,0-0.1-0.1-0.2C14.3,24.9,14.3,24.9,14.2,25L14.2,25z M28.1,24.4c0.1,0.1,0.2,0.2,0.3,0.3
		c0.2,0.3,0.4,0.6,0.6,0.9c0.4,0.7,0.6,1.4,0.8,2.1c0,0.2,0.1,0.4,0.1,0.7c0,0.5,0.1,0.9,0.3,1.3c0.2,0.3,0.5,0.5,0.7,0.7
		c0.1,0.1,0.2,0,0.2,0c0,0,0-0.2,0-0.3c0.1-0.2,0.2-0.3,0.3-0.4c0.1-0.1,0.3-0.2,0.5-0.3c0.4-0.2,0.8-0.3,1.2-0.4
		c0.3-0.1,0.6-0.2,0.9-0.2c-1.3,0-2.7,0-4,0c0.1-0.3,0.1-0.5,0.2-0.8c0.1-0.2,0.3-0.3,0.5-0.4c0.8-0.5,1.7-0.9,2.6-1.2
		c-0.1-0.1-0.2-0.3-0.3-0.4c-0.1-0.2,0.1-0.5,0.2-0.6c0.1-0.1,0.2-0.2,0.3-0.3c0.1-0.1,0.3-0.1,0.5,0c0.5,0.2,1,0.5,1.4,0.8
		c0,0,0.1,0.1,0.1,0.1c-0.1,0.2-0.2,0.5-0.3,0.7c-0.4,0.1-0.8,0.1-1.2,0.2c0,0.2,0.1,0.4,0,0.6c0,0-0.1,0-0.1,0
		c0-0.2-0.1-0.3-0.2-0.5c-0.5,0.2-1,0.3-1.5,0.5c-0.4,0.2-0.8,0.3-1,0.6c2.1,0,4.1,0,6.2,0c-0.1,0.2-0.3,0.5-0.4,0.7
		c-1.4,0.3-2.7,0.5-4,0.9c-0.5,0.2-1.1,0.3-1.6,0.6c-0.1,0-0.1,0.1,0,0.1c0.1,0.1,0.2,0.1,0.3,0.2c0.2,0.1,0.5,0.2,0.8,0.2
		c0.2,0,0.4,0.1,0.6,0.1c0,0.3,0,0.5,0,0.8c-0.2,0-0.3,0-0.5,0c-0.3,0-0.6-0.1-0.9-0.1c-0.4-0.1-0.8-0.3-1.1-0.6
		c-0.3-0.3-0.6-0.6-0.7-1c-0.2-0.5-0.4-1.1-0.4-1.6c0,0,0,0.1,0,0.1c-0.1,0.2-0.1,0.4-0.2,0.6c0,0.1-0.1,0.1-0.1,0.1
		c-0.3,0.3-0.6,0.5-1,0.8c-0.4,0.3-0.7,0.5-1.1,0.7c-0.4,0.2-0.9,0.4-1.4,0.5c-0.3,0-0.6,0.1-0.8-0.1c-0.3-0.1-0.4-0.4-0.5-0.6
		c-0.2,0.1-0.5,0.3-0.7,0.4c-0.2,0.1-0.4,0.2-0.7,0.3c-0.6,0.2-1.3,0.3-1.9,0.4c-0.5,0.1-0.9,0.2-1.4,0.2c0.4-0.2,0.9-0.4,1.3-0.6
		c1.2-0.5,2.4-1.1,3.5-1.7c0.2-0.6,0.4-1.2,0.9-1.6c0,0,0,0,0,0c0,0.1-0.1,0.1-0.1,0.2c-0.3,0.4-0.5,0.8-0.6,1.3
		c0.5-0.3,1-0.6,1.5-0.9c0.3-0.2,0.6-0.4,0.8-0.7c0.1-0.1,0.2-0.1,0.2-0.2c0-0.1,0-0.1,0-0.2c-0.3-0.6-0.7-1.4-1-2
		c0.1-0.3,0.2-0.6,0.3-0.8c0.1,0.1,0.2,0.2,0.3,0.3c0.2,0.2,0.4,0.4,0.5,0.7c0.1,0.1,0.1,0.3,0.1,0.4c-0.1-0.1-0.2-0.2-0.3-0.3
		c0,0,0,0,0,0.1c0.2,0.3,0.4,0.7,0.5,1.1c0.1,0.2,0.1,0.4,0.1,0.7c0,0.2-0.1,0.5-0.2,0.7c-0.1,0.2-0.3,0.4-0.5,0.5
		c-0.6,0.6-1.3,1-2,1.5c0,0,0,0,0.1,0.1c0.3,0.1,0.6,0.1,0.9,0.1c0.2,0,0.4-0.1,0.6-0.2c0.5-0.2,1-0.5,1.4-0.8
		c0.6-0.4,1.1-0.9,1.6-1.3c-0.2-0.5-0.3-1-0.5-1.4c-0.1-0.2-0.2-0.5-0.3-0.7c-0.2-0.3-0.4-0.6-0.5-1C27.9,24.9,28,24.6,28.1,24.4
		 M33.3,25.7c-0.1,0-0.1,0.1-0.1,0.1c0,0,0.1,0.1,0.1,0.1c0.1,0.1,0.2,0.2,0.4,0.4c0.3-0.1,0.5-0.2,0.8-0.2
		c-0.2-0.2-0.4-0.3-0.7-0.4C33.6,25.6,33.5,25.6,33.3,25.7L33.3,25.7z M39.3,25.4c0.8-0.4,1.7-0.8,2.5-1.2c0,0.1-0.1,0.3-0.2,0.4
		c-0.8,0.4-1.6,0.8-2.4,1.2C39.2,25.6,39.3,25.5,39.3,25.4L39.3,25.4z M35.1,23.8c0.1,0,0.2,0,0.2,0c0.1,0.1,0.1,0.2,0.1,0.3
		c-0.1,0.2-0.2,0.4-0.4,0.5c-0.2,0.2-0.5,0.3-0.8,0.4c0.1-0.1,0.1-0.1,0.2-0.1c0.2-0.1,0.4-0.2,0.5-0.3c0.1-0.1,0.2-0.2,0.2-0.3
		c0-0.1-0.1-0.2-0.2-0.2c-0.2,0-0.2,0.1-0.4,0.2c0-0.1,0-0.1,0.1-0.2C34.8,24,34.9,23.9,35.1,23.8L35.1,23.8z M24.2,23.4
		c0.3-0.1,0.5-0.3,0.8-0.4c0,0.1-0.1,0.3-0.2,0.3c-0.6,0.3-1.1,0.6-1.7,0.8c0.1-0.1,0.1-0.2,0.2-0.3C23.5,23.7,23.9,23.5,24.2,23.4
		L24.2,23.4z M48.9,22.6c0.4,0.2,0.7,0.5,0.9,0.8c0.2,0.3,0.2,0.7,0,1c0,0-0.1,0.1-0.1,0.1c0.1-0.2,0.1-0.5,0-0.7
		c-0.1-0.4-0.4-0.6-0.8-0.8C48.9,22.9,48.9,22.7,48.9,22.6L48.9,22.6z M39.9,22.7c0.1-0.1,0.1-0.1,0.2-0.2c-0.1,0.1,0,0.3,0,0.4
		c0,0.1,0.1,0.2,0.1,0.3c0.1,0.1,0.2,0.1,0.3,0.1c0.1,0,0.1,0,0.1-0.1c-0.1-0.1-0.1-0.3-0.2-0.4c0-0.1,0.1-0.2,0.1-0.3
		c0,0,0.1,0,0.1,0c0,0.2,0.1,0.3,0.2,0.5c0,0.1,0,0.2,0,0.4c0,0.1-0.1,0.2-0.2,0.2c-0.1,0-0.2,0-0.3,0c-0.1,0-0.2-0.1-0.3-0.2
		c-0.1,0.1-0.2,0.2-0.4,0.3c-0.1,0.1-0.3,0-0.4-0.1c-0.1-0.1-0.1-0.2-0.1-0.4c0-0.1,0-0.2,0.1-0.4c0-0.1,0.1-0.2,0.2-0.2
		c-0.1,0.2-0.2,0.4-0.1,0.6c0,0.1,0.1,0.1,0.2,0.1c0.1,0,0.2-0.1,0.3-0.1C39.8,23.1,39.8,23,39.9,22.7
		C39.8,22.8,39.8,22.7,39.9,22.7L39.9,22.7z M19.6,21.4c0.3,0.2,0.5,0.4,0.7,0.7c0.1,0.2,0.1,0.5,0,0.7c0,0,0,0.1-0.1,0.1
		c0.1-0.2,0.1-0.4-0.1-0.6c-0.1-0.2-0.3-0.4-0.6-0.5C19.6,21.7,19.6,21.6,19.6,21.4L19.6,21.4z M29.4,21.2c0.1-0.1,0.1-0.2,0.2-0.2
		c-0.1,0.1,0,0.2,0,0.2c0,0.2,0.1,0.3,0.1,0.4c0,0.1,0.1,0.1,0.2,0.1c0.1,0,0.1,0,0.2,0c0,0,0-0.1,0-0.1c-0.1-0.1-0.1-0.3-0.2-0.4
		l0.1-0.3c0,0,0.1,0,0.1,0c0,0.2,0.1,0.3,0.2,0.5c0,0.1,0,0.3-0.1,0.4c0,0.1-0.1,0.2-0.2,0.2c-0.1,0-0.2,0-0.3,0
		c-0.1-0.1-0.2-0.1-0.3-0.2c-0.1,0.1-0.2,0.2-0.4,0.3c-0.1,0-0.3,0-0.3-0.1c-0.1-0.1-0.1-0.2-0.1-0.3c0-0.1,0-0.3,0.1-0.4
		c0-0.1,0.1-0.2,0.2-0.2c-0.1,0.2-0.1,0.3-0.1,0.5c0,0.1,0.1,0.2,0.2,0.2c0.1,0,0.2-0.1,0.3-0.1C29.4,21.6,29.4,21.4,29.4,21.2
		L29.4,21.2z M39.6,21c0.4-0.2,0.9-0.3,1.3-0.4c0,0.1-0.1,0.2-0.2,0.2c-0.6,0.2-1.3,0.4-1.9,0.7c-0.1,0.1-0.3,0.1-0.4,0.2
		c0.1,0.1,0.2,0.1,0.3,0.1c0,0.1,0,0.1,0,0.2c-0.1,0-0.3-0.1-0.4-0.1c0-0.1,0-0.2,0-0.2s0.1-0.1,0.2-0.2
		C38.9,21.2,39.3,21.1,39.6,21L39.6,21z M19.7,20.3L19.7,20.3c0,0.1,0,0.1,0,0.2c0,0.1,0.1,0.2,0.1,0.3c0,0,0.1,0.1,0.1,0.1
		c0,0,0.1,0,0.1,0c0-0.1-0.1-0.2-0.1-0.3c0-0.1,0-0.1,0.1-0.2c0,0,0,0,0.1,0c0,0.1,0.1,0.2,0.2,0.3c0,0.1,0,0.2-0.1,0.3
		c0,0.1-0.1,0.1-0.2,0.1c-0.1,0-0.2-0.1-0.3-0.2c0,0.1-0.2,0.2-0.3,0.2c-0.1,0-0.2-0.1-0.2-0.2c0-0.1,0-0.2,0-0.3
		c0-0.1,0.1-0.2,0.2-0.2c-0.1,0.1-0.1,0.2-0.1,0.3c0,0,0.1,0.1,0.1,0.1c0.1,0,0.1,0,0.2-0.1c0-0.1,0-0.2,0-0.4
		C19.6,20.3,19.7,20.3,19.7,20.3L19.7,20.3z M23.4,20c0.1,0,0.1,0,0.1,0.1c0.2,0.2,0.4,0.4,0.5,0.6c0.1,0.2,0.1,0.5,0,0.7
		c0,0,0,0.1-0.1,0.1c0,0,0,0,0,0c0.1-0.2,0.1-0.4-0.1-0.6c-0.1-0.2-0.3-0.4-0.6-0.5C23.4,20.3,23.4,20.2,23.4,20L23.4,20z
		 M25.6,19.9c0.1-0.1,0.2-0.2,0.4-0.2c0.1,0,0.1,0.1,0.2,0.1c0.1,0.1,0.1,0.3,0,0.4c0.1,0.1,0.2,0.2,0.3,0.3c0.1,0.2,0,0.3-0.1,0.5
		c-0.1,0.2-0.3,0.4-0.3,0.6c0,0.1,0,0.1,0.1,0.1c0.1,0,0.1-0.1,0.2-0.2c0,0,0.1,0,0.1,0c0,0.1,0,0.2-0.1,0.3c0,0.1-0.1,0.2-0.2,0.2
		c-0.1,0-0.2,0-0.2-0.1c-0.1-0.2-0.1-0.3,0-0.5c0.1-0.2,0.3-0.5,0.3-0.8c0-0.1-0.1-0.2-0.2-0.3c-0.2,0.3-0.4,0.6-0.7,0.8
		c-0.1,0.1-0.3,0.2-0.5,0.3c-0.2,0.1-0.3,0.1-0.5,0.2c0.4-0.2,0.7-0.4,1-0.7c0.2-0.2,0.5-0.5,0.6-0.7l0,0c-0.1-0.1-0.3-0.1-0.4-0.2
		C25.6,20,25.6,19.9,25.6,19.9 M25.7,19.9C25.7,19.9,25.7,19.9,25.7,19.9c0.1,0.1,0.2,0.1,0.3,0.2c0-0.1,0-0.2-0.1-0.2
		C25.9,19.8,25.8,19.9,25.7,19.9L25.7,19.9z M39.7,19.7c0-0.1,0.1-0.1,0.2-0.1c0.1,0,0.2,0.1,0.3,0.1c0,0,0.1,0.1,0,0.2
		c0,0-0.1,0.1-0.1,0.1c-0.1-0.1-0.1-0.2-0.2-0.2c-0.1,0-0.2,0.2-0.3,0.3c-0.1,0.2-0.1,0.4-0.1,0.7c0,0-0.1,0-0.1,0.1
		c0-0.2-0.1-0.5-0.3-0.6c-0.1,0-0.2,0-0.3-0.1c-0.1-0.1-0.1-0.2-0.1-0.3c0.1,0,0.2,0,0.3,0.1c0.2,0.1,0.3,0.3,0.4,0.5
		C39.5,20.1,39.6,19.9,39.7,19.7L39.7,19.7z M13.1,19.8c0.1-0.1,0.1-0.2,0.2-0.2c-0.2,0.3-0.3,0.5-0.4,0.8c0,0.1,0,0.2,0.1,0.3
		c0.1,0.1,0.2,0.1,0.3,0.1c0.1,0,0.2-0.1,0.2-0.2c0,0,0,0,0,0c-0.1,0.2-0.1,0.4-0.3,0.5c-0.2,0.1-0.5,0.1-0.6-0.1
		c-0.1-0.1,0-0.3,0-0.4C12.7,20.3,12.9,20.1,13.1,19.8L13.1,19.8z M28.9,19.5c0.3,0.2,0.5,0.4,0.7,0.7c0.1,0.2,0.1,0.3,0.1,0.5
		c0,0.1,0,0.2-0.1,0.3c0,0,0-0.1,0-0.1c0.1-0.2,0-0.5-0.1-0.6c-0.1-0.2-0.3-0.3-0.5-0.4C28.9,19.7,28.9,19.6,28.9,19.5L28.9,19.5z
		 M33.2,19.4c0.1,0.1,0.2,0.1,0.3,0.2c0.2,0.2,0.3,0.5,0.5,0.7c0,0,0,0.1,0,0.2c-0.1-0.1-0.2-0.2-0.3-0.2c0,0,0,0.1,0,0.1
		c0.2,0.4,0.4,0.8,0.5,1.2c0.1,0.3,0.2,0.5,0.2,0.8c0,0.3-0.1,0.5-0.1,0.8c-0.1,0.2-0.2,0.5-0.5,0.6C33.5,24,33.2,24,33,24
		c-0.3,0-0.6-0.1-0.8-0.3c-0.1-0.1-0.2-0.2-0.3-0.3l0,0c0,0,0,0,0,0c-0.2-0.3-0.3-0.6-0.4-0.9c0,0-0.1,0-0.1,0
		c-0.1,0.4-0.3,0.9-0.6,1.2c-0.2,0.2-0.4,0.4-0.7,0.5c-0.3,0.1-0.7,0.1-1.1,0.1s-0.6-0.3-0.8-0.5c-0.2-0.4-0.2-0.8-0.2-1.2
		c0-0.3,0.2-0.6,0.2-0.9c0-0.1,0.1-0.2,0-0.3c0,0,0,0-0.1,0c0,0-0.1,0-0.1,0.1c-0.3,0.2-0.4,0.5-0.5,0.8c-0.1,0.2-0.2,0.5-0.2,0.7
		c-0.1,0.4-0.2,0.7-0.4,1.1c-0.1,0.2-0.3,0.4-0.6,0.4c-0.2,0-0.5,0-0.7-0.2c-0.2-0.2-0.3-0.4-0.4-0.6c-0.1-0.4-0.1-0.8,0-1.2
		c0-0.2,0.1-0.5,0.2-0.7c0,0,0,0,0.1,0c-0.1,0.4-0.2,0.8-0.1,1.3c0,0.2,0.1,0.5,0.2,0.7c0.1,0.2,0.2,0.3,0.4,0.4
		c0.2,0.1,0.4,0.1,0.6,0c0.2-0.1,0.3-0.3,0.3-0.4c0.1-0.3,0.2-0.7,0.3-1.1c0.1-0.4,0.3-0.7,0.5-1c0.1-0.2,0.2-0.4,0.4-0.6
		c0.1-0.2,0.3-0.3,0.5-0.4c0,0,0,0,0.1,0c0,0.1,0,0.2,0,0.4c0,0.2-0.1,0.4-0.2,0.6c-0.1,0.2-0.1,0.4-0.2,0.7c-0.1,0.3-0.1,0.6,0,1
		c0.1,0.2,0.3,0.5,0.6,0.6c0.2,0.1,0.4,0.1,0.6,0.1c0.3,0,0.6,0,0.9-0.1c0.3-0.1,0.5-0.4,0.7-0.6c0.1-0.3,0.2-0.5,0.2-0.8
		c0-0.6,0-1.1-0.3-1.6c0-0.1-0.1-0.2-0.1-0.2c0-0.2,0.1-0.4,0.2-0.6c0,0,0,0,0.1,0c0.1,0.3,0.2,0.5,0.3,0.8c0.1,0.4,0.1,0.7,0.2,1.1
		c0,0.3,0.1,0.5,0.1,0.8c0.1,0.2,0.2,0.4,0.3,0.6c0.2,0.2,0.5,0.4,0.9,0.5c0.3,0.1,0.6,0,0.9-0.1c0.1-0.1,0.3-0.2,0.2-0.3
		c-0.4-0.9-0.7-1.7-1.1-2.6c0-0.1-0.1-0.1-0.1-0.2C33,19.8,33.1,19.6,33.2,19.4L33.2,19.4z M21.8,20.1c0.1-0.2,0.3-0.5,0.4-0.7
		c0.3,0.5,0.5,1,0.7,1.6c0,0.1,0,0.2,0,0.3c-0.1-0.1-0.2-0.3-0.3-0.4c0,0.2,0.1,0.5,0.1,0.7c0.2,1.4,0.4,2.9,0.5,4.3
		c0.2-0.1,0.3-0.2,0.4-0.4c0.1-0.2,0.2-0.3,0.3-0.5c0.1-0.1,0.1-0.1,0.2-0.1c0.1,0,0.1,0.1,0.1,0.1c0,0.1-0.1,0.2-0.1,0.4
		c0,0.1,0.1,0.2,0.2,0.2c0.2,0.1,0.5,0,0.7,0c0.1,0,0.2,0,0.3-0.1c-0.1-0.1-0.1-0.3-0.2-0.4c0.1-0.2,0.2-0.4,0.3-0.6
		c0,0,0-0.1,0.1-0.1c0.1,0.2,0.1,0.5,0.1,0.7c0,0.4,0,0.8-0.3,1.1c-0.1,0.2-0.3,0.3-0.6,0.4c-0.2,0-0.4,0-0.6-0.1
		c-0.2-0.1-0.4-0.3-0.5-0.5c-0.1,0.2-0.3,0.4-0.5,0.6c0,0.3,0.1,0.6,0.1,0.9c0,0.3-0.1,0.6-0.2,0.9c-0.1,0.1-0.1,0.3-0.2,0.4
		c-0.6,0.8-1.5,1.5-2.5,2.1c-0.7,0.4-1.4,0.6-2.2,0.8c-0.4,0.1-0.8,0.2-1.2,0.2c-0.4,0-0.9,0-1.3-0.2c-0.4-0.1-0.7-0.3-0.9-0.6
		c-0.7,0.1-1.5,0.1-2.2,0.1c0.7-0.2,1.3-0.4,2-0.6c-0.4-1.5,0.5-3.1,1.1-4C15.3,27.3,15,28,15,28.8c0,0.5,0,1,0.3,1.5
		c0.8-0.3,1.6-0.6,2.3-1c0.6-0.3,1.2-0.7,1.8-1.1c0.3-0.2,0.5-0.4,0.7-0.6c0.1-0.1,0-0.1,0-0.2c0-0.1-0.1-0.2-0.2-0.3
		c-0.4,0.1-0.8,0.2-1.2,0.2c-0.2,0-0.5,0-0.6-0.1c-0.2-0.1-0.3-0.2-0.3-0.4c-0.1-0.2,0-0.4,0-0.6c0.1-0.3,0.2-0.6,0.5-0.8
		c0.2-0.2,0.4-0.3,0.7-0.3c0.3,0,0.6,0.1,0.8,0.3c0.3,0.2,0.4,0.5,0.6,0.7c0.3-0.1,0.5-0.3,0.7-0.4c0.2-0.2,0.4-0.3,0.6-0.4
		c0.1,0,0.2-0.1,0.2,0c0,0.1,0,0.2,0,0.3c-0.1,0.1,0,0.3,0.1,0.4c0.2,0.1,0.4,0.2,0.7,0.1c-0.2-1.9-0.5-3.9-0.7-5.8
		C21.8,20.2,21.8,20.1,21.8,20.1 M18.5,26c-0.1,0-0.3,0.1-0.3,0.2c0,0.1,0.2,0.1,0.2,0.1c0.3,0,0.6,0,0.9,0c0,0,0,0,0,0
		c-0.2-0.1-0.4-0.3-0.6-0.3C18.7,26,18.6,26,18.5,26 M20.5,26.8c0,0.4,0,0.8-0.2,1.2c-0.1,0.1-0.1,0.3-0.2,0.4
		c-0.6,0.6-1.3,1.1-2,1.5c-0.7,0.4-1.4,0.7-2.1,1c0.1,0.1,0.3,0.1,0.4,0.1c0.4,0.1,0.8,0,1.1,0c1.2-0.1,2.3-0.5,3.2-1.1
		c0.6-0.4,1.2-0.8,1.7-1.3c0.2-0.2,0.4-0.3,0.4-0.5c0-0.4-0.1-0.8-0.1-1.1c-0.3,0.1-0.6,0.1-0.8,0c-0.3-0.2-0.4-0.5-0.4-0.7
		C21.2,26.4,20.9,26.6,20.5,26.8L20.5,26.8z M34.9,19.5c0.1-0.1,0.1-0.2,0.2-0.2c-0.2,0.3-0.3,0.5-0.4,0.8c0,0.1,0,0.3,0.1,0.4
		c0.1,0,0.2,0,0.2,0c0.2,0,0.2-0.2,0.3-0.2c0,0,0,0.1,0,0.1c-0.1,0.2-0.1,0.3-0.3,0.5c-0.2,0.2-0.5,0.1-0.6-0.1
		c-0.1-0.2,0-0.4,0.1-0.5C34.6,20,34.7,19.7,34.9,19.5L34.9,19.5z M16.3,20c0.2-0.2,0.3-0.5,0.5-0.7c0.2,0.5,0.4,1,0.6,1.6
		c0,0.1,0,0.2,0,0.3c-0.1-0.1-0.2-0.3-0.3-0.4c0.1,0.4,0.1,0.8,0.1,1.2c0,0.5,0.1,1.1,0.1,1.6c0.3,0,0.6-0.2,0.9-0.4
		c0.3-0.3,0.4-0.7,0.5-1.1c0-0.5,0-1-0.2-1.5c0-0.1-0.1-0.2-0.1-0.3c0-0.2,0.1-0.4,0.2-0.6c0,0,0-0.1,0.1-0.1
		c0.1,0.2,0.2,0.5,0.3,0.7c0.1,0.4,0.2,0.8,0.2,1.2c0,0.2,0.1,0.5,0.1,0.7c0.1,0.3,0.3,0.6,0.6,0.8c0.3,0.2,0.6,0.3,0.9,0.2
		c0.2,0,0.5-0.1,0.6-0.2c0.1-0.1,0.1-0.2,0.1-0.2c-0.3-0.7-0.6-1.3-0.9-2c-0.1-0.2-0.2-0.5-0.3-0.7c0-0.1,0-0.1,0-0.2
		c0.1-0.2,0.1-0.4,0.2-0.5c0.1,0,0.2,0.1,0.3,0.2c0.2,0.2,0.4,0.5,0.5,0.8c0,0,0,0.1,0,0.1c-0.1-0.1-0.2-0.2-0.3-0.2
		c0,0,0,0.1,0,0.1c0.1,0.3,0.3,0.7,0.4,1c0.1,0.3,0.3,0.8,0.3,0.9c0,0.3-0.1,0.6-0.2,0.9c-0.1,0.2-0.3,0.5-0.6,0.6
		c-0.2,0.1-0.5,0.1-0.8,0.1c-0.3-0.1-0.6-0.2-0.8-0.4c-0.3-0.3-0.5-0.7-0.6-1c0,0,0,0-0.1,0c-0.1,0.4-0.3,0.7-0.5,1.1
		c-0.2,0.3-0.5,0.6-0.9,0.7c0.1,0.9,0.1,1.8,0.2,2.8c0,0.5,0,0.9,0,1.4c0,0.1,0,0.1-0.1,0.2c-0.1,0.2-0.2,0.4-0.2,0.6
		c0,0,0,0.1-0.1,0.1c0-0.9-0.1-1.7-0.2-2.6c-0.1-0.8-0.1-1.5-0.2-2.3c-0.3,0-0.7-0.1-0.9-0.3c-0.3-0.2-0.4-0.5-0.5-0.8
		c-0.1-0.3-0.1-0.5,0-0.8c0.1-0.3,0.2-0.7,0.3-1c0-0.1,0-0.1,0-0.2c0,0,0,0,0-0.1c0,0-0.1,0-0.1,0c-0.2,0.1-0.3,0.3-0.4,0.5
		c-0.2,0.4-0.3,0.8-0.4,1.2c-0.1,0.3-0.1,0.5-0.2,0.8c-0.1,0.2-0.2,0.4-0.4,0.5c-0.2,0.1-0.4,0.1-0.6,0c-0.3-0.1-0.4-0.3-0.5-0.5
		c-0.2-0.3-0.2-0.7-0.2-1.1c0-0.4,0.1-0.8,0.2-1.2c0,0,0,0,0.1,0c-0.1,0.5-0.2,0.9-0.1,1.4c0,0.2,0.1,0.4,0.2,0.6
		c0.1,0.2,0.3,0.3,0.5,0.4c0.2,0,0.4,0,0.6-0.1c0.2-0.1,0.3-0.3,0.3-0.4c0.2-0.4,0.2-0.8,0.4-1.2c0.2-0.4,0.3-0.8,0.6-1.2
		c0.1-0.2,0.3-0.4,0.5-0.5c0.1,0,0.1-0.1,0.2-0.1c0,0,0,0.1,0,0.1c0,0.2,0,0.4-0.1,0.5c-0.1,0.4-0.2,0.7-0.3,1.1
		c-0.1,0.3-0.1,0.6,0.1,0.9c0.1,0.2,0.3,0.4,0.6,0.5c0.1,0.1,0.3,0.1,0.4,0.1c-0.1-1-0.2-2.1-0.3-3.1C16.3,20.3,16.3,20.2,16.3,20
		L16.3,20z M50.4,20c0.1-0.3,0.3-0.5,0.4-0.8c0.2,0.6,0.4,1.1,0.6,1.7c0,0.1,0.1,0.2,0.1,0.3c0,0.1-0.1,0.2-0.1,0.2
		c-0.1-0.1-0.2-0.2-0.2-0.3c0.1,1.5,0.2,2.9,0.3,4.4c0,0.5,0.1,0.9,0.1,1.4c0,0.9,0,1.8-0.3,2.6c-0.1,0.3-0.3,0.6-0.5,0.9
		c-0.3,0.4-0.7,0.6-1.1,0.9c-0.8,0.4-1.7,0.6-2.6,0.7c-0.1,0-0.1,0-0.1-0.1c0.8-0.3,1.6-0.7,2.3-1.1c0.4-0.2,0.7-0.4,1-0.7
		c0.3-0.3,0.6-0.7,0.7-1.1c0.1-0.4,0.1-0.8,0.1-1.2c-0.1-1-0.2-1.9-0.2-2.9c-0.1-1.5-0.2-3-0.4-4.4C50.5,20.3,50.4,20.2,50.4,20
		C50.4,20.1,50.4,20,50.4,20L50.4,20z M48.4,20.3c0.5-0.4,0.9-0.8,1.4-1.2c0,0.4-0.2,0.7-0.5,1c-0.1,0.2-0.3,0.3-0.5,0.4
		c-0.1,0.1-0.2,0.1-0.2,0.2c0,0.1,0.1,0.2,0.1,0.3c0,0.1,0,0.2,0,0.3c-0.1-0.1-0.2-0.3-0.3-0.4c0.1,0.4,0.1,0.8,0.1,1.2
		c0.1,1.2,0.2,2.4,0.2,3.6c0,0,0,0.1,0.1,0.1c0.3,0.3,0.7,0.6,1,0.9c0.2,0.3,0.5,0.5,0.7,0.8c0.3,0.4,0.5,0.8,0.5,1.2
		c0,0.3,0,0.5-0.1,0.8c-0.2-0.7-0.5-1.3-1-1.8c-0.3-0.4-0.7-0.7-1.1-1.1c0,0.4,0.1,0.9,0.1,1.3c0,0.6,0,1.1,0,1.7
		c0,0.1-0.1,0.2-0.1,0.3c-0.1,0.2-0.2,0.5-0.3,0.7c0-0.5,0-1-0.1-1.6c-0.1-0.9-0.1-1.8-0.2-2.8c0-0.1,0-0.2,0-0.2
		c-0.3-0.2-0.5-0.5-0.8-0.7c-0.5-0.4-0.9-0.8-1.4-1.1c0.1,1,0.2,1.9,0.3,2.9c0,0.4,0.1,0.9,0.1,1.3c0,0.4,0,0.8,0,1.1
		c0,0.2,0,0.5-0.1,0.7c-0.2,0.3-0.4,0.5-0.8,0.7c-0.3,0.1-0.6,0.2-0.9,0.2c-0.2,0-0.4,0-0.6-0.1c-0.3-0.1-0.5-0.4-0.7-0.6
		c-0.1-0.2-0.2-0.4-0.2-0.6c0-0.1,0-0.2-0.1-0.2c-0.1,0-0.2,0-0.2,0c-0.2,0.1-0.4,0.2-0.5,0.3c-0.4,0.4-0.6,0.9-0.8,1.4
		c-0.1,0.2-0.2,0.4-0.3,0.6c-0.1,0.1-0.3,0.2-0.5,0.3c-0.2,0-0.3-0.1-0.5-0.1c-0.3-0.1-0.5-0.4-0.7-0.6c0-0.1-0.1-0.1-0.2-0.4
		c-0.1-0.3-0.1-0.7-0.1-1.1c0,0,0-0.1-0.1-0.1c-0.1-0.1-0.2-0.2-0.2-0.3c0-0.4,0.1-0.9,0.3-1.3c0.2-0.3,0.5-0.6,0.7-0.9
		c0,0,0.1-0.1,0.1-0.1c-0.2-0.2-0.3-0.3-0.5-0.4c-0.1-0.1-0.2-0.2-0.3-0.3c-0.4-0.3-0.8-0.7-1.1-1c0,0.5,0.1,1,0.1,1.5
		c0,0.5,0.1,0.9,0.1,1.3c0,0.4,0,0.8,0,1.2c0,0.1-0.1,0.2-0.1,0.3c-0.1,0.2-0.2,0.5-0.3,0.7c0-0.2,0-0.4,0-0.6
		c0-0.9-0.1-1.9-0.2-2.8c-0.1-0.7-0.1-1.4-0.2-2.2c-0.2-0.2-0.5-0.5-0.8-0.7c-0.3-0.3-0.6-0.6-0.8-0.9c-0.3-0.5-0.7-1-1.2-1.4
		c0,0,0-0.1,0-0.1c0-0.3,0-0.5,0-0.8c0.3,0.2,0.7,0.4,1,0.6c0.2,0.2,0.5,0.3,0.7,0.5c0.1,0.1,0.2,0.2,0.2,0.3
		c-0.1,0-0.2-0.1-0.3-0.1c0,0-0.1,0-0.1,0c0,0.1,0.1,0.1,0.1,0.2c0.4,0.4,0.7,0.8,1.1,1.2c0.1,0.1,0.1,0.1,0.1,0.2
		c0-0.5-0.1-0.9-0.1-1.4c-0.1-0.7-0.1-1.4-0.2-2.2c0-0.1,0-0.2-0.1-0.3c0,0,0-0.1,0-0.1c0.1-0.2,0.3-0.4,0.4-0.6c0,0,0-0.1,0,0
		c0.2,0.5,0.4,1,0.5,1.5c0,0.1,0,0.2,0,0.4c-0.1-0.1-0.2-0.3-0.3-0.4c0.1,1.3,0.2,2.5,0.3,3.8c0.1,0.1,0.2,0.2,0.2,0.2
		c0.7,0.7,1.5,1.3,2.3,2c0.6-0.5,1.2-1,1.7-1.5c0,0,0,0,0-0.1c-0.2-1.6-0.4-3.2-0.5-4.7c0-0.2,0-0.3-0.1-0.5
		c0.1-0.2,0.3-0.5,0.4-0.7c0.1,0.1,0.1,0.3,0.2,0.4c0.1,0.3,0.3,0.7,0.4,1c0,0.1,0.1,0.2,0,0.2c0,0.1,0,0.1,0,0.2
		c-0.1-0.1-0.2-0.3-0.3-0.4c0.1,1.3,0.3,2.9,0.4,4c0.6-0.5,1.2-1,1.8-1.5c0.1-0.1,0.1-0.1,0.2-0.2c-0.3-0.3-0.6-0.6-0.9-1
		c-0.1-0.1-0.2-0.2-0.3-0.3c-0.2-0.2-0.4-0.5-0.7-0.7c0-0.3,0-0.6-0.1-0.9c0.6,0.4,1.2,0.9,1.9,1.3c0.1,0,0.1,0.1,0.1,0.2
		c-0.1-0.5-0.1-1-0.2-1.4c0,0,0-0.1,0-0.1c0,0-0.1-0.1,0-0.1c0.1-0.2,0.3-0.5,0.4-0.7c0.2,0.5,0.4,0.9,0.6,1.4c0,0.1,0.1,0.1,0,0.2
		c0,0.1,0,0.2,0,0.2c-0.1-0.1-0.2-0.2-0.3-0.3c0,0,0,0,0-0.1c0.1,0.5,0.1,1.1,0.2,1.6c0.5-0.4,0.9-0.8,1.4-1.1
		c0.2-0.2,0.4-0.3,0.6-0.5c0-0.2,0-0.4-0.1-0.6c0-0.1-0.1-0.1,0-0.2c0.2-0.2,0.3-0.5,0.4-0.7C48.2,19.7,48.3,20,48.4,20.3 M45.7,23
		c0,0.1,0,0.2,0,0.3c0.2,0.1,0.3,0.3,0.5,0.4c0.6,0.5,1.2,1,1.8,1.6c-0.1-1.3-0.2-2.6-0.3-3.9C47,21.8,46.3,22.4,45.7,23 M44.4,21.8
		c0.2,0.2,0.4,0.5,0.6,0.7c0-0.2,0-0.4-0.1-0.6c0,0,0,0,0,0.1C44.7,21.8,44.6,21.7,44.4,21.8 M43.2,25.1c-0.1,0.1-0.3,0.2-0.4,0.3
		c0,0.4,0.1,0.7,0.1,1.1c0,0.6-0.1,1.3-0.6,1.8c0-0.1,0-0.2,0-0.2c0-0.3,0-0.5,0-0.8c0-0.3,0-0.2,0-0.8c0-0.2,0-0.4-0.1-0.6
		c-0.2,0.1-0.3,0.3-0.5,0.4c-0.3,0.3-0.7,0.6-1,0.8c0.3,0.3,0.5,0.7,0.6,1.1c0.1,0.4-0.1,0.9-0.4,1.2c-0.3,0.3-0.7,0.5-1.2,0.5
		c-0.2,0-0.4,0.1-0.6,0c0,0.2,0.1,0.3,0.1,0.5c0.1,0.3,0.2,0.6,0.4,0.8c0.1,0.1,0.2,0.3,0.4,0.3c0.2,0,0.4,0,0.6-0.2
		c0.1-0.1,0.2-0.2,0.2-0.4c0.2-0.4,0.2-0.8,0.4-1.2c0.2-0.3,0.4-0.6,0.6-0.8c0.2-0.1,0.3-0.2,0.5-0.3c0.1-0.1,0.3-0.1,0.4-0.1
		c0.1,0,0.2,0.1,0.3,0.2c0.1,0.2,0.2,0.5,0.3,0.7c0.1,0.2,0.2,0.4,0.4,0.5c0.2,0.1,0.5,0.2,0.7,0.2c0.4,0,1.2-0.3,1.2-0.4
		c0-0.1-0.1-0.7-0.1-1.1c-0.2-1.7-0.4-3.5-0.6-5.2c0,0-0.1-0.1-0.1-0.1C44.4,24,43.8,24.6,43.2,25.1 M40.3,27.6
		c-0.1,0.1-0.3,0.2-0.4,0.4c-0.2,0.2-0.5,0.5-0.6,0.8c0,0.1-0.1,0.2,0,0.2c0.1,0.1,0.2,0.1,0.3,0.1c0.5,0,0.9-0.2,1.3-0.4
		c0.1-0.1,0.2-0.2,0.2-0.3c-0.1-0.2-0.2-0.3-0.3-0.4C40.6,27.9,40.5,27.8,40.3,27.6C40.3,27.6,40.3,27.6,40.3,27.6L40.3,27.6z"/>
</g>
</svg>
