<?xml version="1.0" encoding="UTF-8" standalone="no"?>
<svg
   xmlns:dc="http://purl.org/dc/elements/1.1/"
   xmlns:cc="http://creativecommons.org/ns#"
   xmlns:rdf="http://www.w3.org/1999/02/22-rdf-syntax-ns#"
   xmlns:svg="http://www.w3.org/2000/svg"
   xmlns="http://www.w3.org/2000/svg"
   xmlns:sodipodi="http://sodipodi.sourceforge.net/DTD/sodipodi-0.dtd"
   xmlns:inkscape="http://www.inkscape.org/namespaces/inkscape"
   viewBox="0 0 64 44"
   enable-background="new 0 0 64 64"
   id="svg2"
   version="1.1"
   inkscape:version="0.48.4 r9939"
   width="100%"
   height="100%"
   sodipodi:docname="Emojione_1F1FF-1F1E6.svg">
  <metadata
     id="metadata30">
    <rdf:RDF>
      <cc:Work
         rdf:about="">
        <dc:format>image/svg+xml</dc:format>
        <dc:type
           rdf:resource="http://purl.org/dc/dcmitype/StillImage" />
      </cc:Work>
    </rdf:RDF>
  </metadata>
  <defs
     id="defs28" />
  <sodipodi:namedview
     pagecolor="#ffffff"
     bordercolor="#666666"
     borderopacity="1"
     objecttolerance="10"
     gridtolerance="10"
     guidetolerance="10"
     inkscape:pageopacity="0"
     inkscape:pageshadow="2"
     inkscape:window-width="1920"
     inkscape:window-height="1096"
     id="namedview26"
     showgrid="false"
     inkscape:zoom="2.3451828"
     inkscape:cx="171.8369"
     inkscape:cy="22.856567"
     inkscape:window-x="-8"
     inkscape:window-y="-8"
     inkscape:window-maximized="1"
     inkscape:current-layer="svg2"
     fit-margin-top="0"
     fit-margin-left="0"
     fit-margin-right="0"
     fit-margin-bottom="0" />
  <g
     id="g3058"
     transform="translate(0,-10)">
    <switch
       id="switch4">
      <g
         id="g6">
        <path
           id="path8"
           d="m 0,37 v 6 c 0,1.209 0.14,2.369 0.406,3.457 L 15.762,37 H 0 z"
           inkscape:connector-curvature="0"
           style="fill:#ec1c24" />
        <path
           id="path10"
           d="M 0.365,17.689 C 0.123,18.734 0,19.846 0,21 v 6 H 15.048 L 0.365,17.689 z"
           inkscape:connector-curvature="0"
           style="fill:#ec1c24" />
        <path
           style="fill:#de3831;fill-opacity:1"
           id="path12"
           d="M 64,27 V 21 C 64,14.925 60.627,10 54,10 H 10 C 9.072,10 8.216,10.105 7.416,10.288 L 34,27 h 30 z"
           inkscape:connector-curvature="0" />
        <path
           style="fill:#ffffff"
           id="path14"
           d="M 35,25 11.73,10 H 10 C 9.072,10 8.216,10.105 7.416,10.288 L 34,27 H 64 V 25 H 35 z"
           inkscape:connector-curvature="0" />
        <path
           style="fill:#002395;fill-opacity:1"
           id="path16"
           d="M 7.518,53.737 C 8.288,53.905 9.112,54 10,54 h 44 c 6.627,0 10,-4.925 10,-11 V 37 H 34 L 7.518,53.737 z"
           inkscape:connector-curvature="0" />
        <path
           style="fill:#ffffff"
           id="path18"
           d="M 11.849,54 35,39 H 64 V 37 H 34 L 7.518,53.737 C 8.288,53.905 9.112,54 10,54 h 1.849 z"
           inkscape:connector-curvature="0" />
        <path
           style="fill:#007a4d;fill-opacity:1"
           id="path20"
           d="M 15,36.992 14.963,36.987 0.406,46.455 c 0.892,3.647 3.273,6.447 7.111,7.281 L 34,37 H 64 V 27 H 34 L 7.416,10.288 C 3.587,11.162 1.222,14.003 0.365,17.689 L 15.048,27 H 15 l 7,5"
           inkscape:connector-curvature="0" />
        <path
           style="fill:#000000"
           id="path22"
           d="M 0.367,17.684 C 0.124,18.73 0,19.844 0,21 v 22 c 0,1.187 0.133,2.326 0.389,3.396 L 23,32 0.367,17.684 z"
           inkscape:connector-curvature="0" />
        <path
           style="fill:#ffb612;fill-opacity:1"
           id="path24"
           d="M 0.367,17.684 C 0.15,18.616 0.045,19.607 0.02,20.627 L 18,32 0.025,43.444 c 0.029,1.024 0.141,2.02 0.363,2.952 L 23,32 0.367,17.684"
           inkscape:connector-curvature="0" />
      </g>
    </switch>
  </g>
</svg>
