<?xml version="1.0" encoding="UTF-8" standalone="no"?>
<svg
   xmlns:dc="http://purl.org/dc/elements/1.1/"
   xmlns:cc="http://creativecommons.org/ns#"
   xmlns:rdf="http://www.w3.org/1999/02/22-rdf-syntax-ns#"
   xmlns:svg="http://www.w3.org/2000/svg"
   xmlns="http://www.w3.org/2000/svg"
   xmlns:sodipodi="http://sodipodi.sourceforge.net/DTD/sodipodi-0.dtd"
   xmlns:inkscape="http://www.inkscape.org/namespaces/inkscape"
   viewBox="0 0 64 64"
   enable-background="new 0 0 64 64"
   version="1.1"
   id="svg39"
   sodipodi:docname="Emojione_1F1F2-1F1F7.svg"
   inkscape:version="0.92.1 r15371">
  <metadata
     id="metadata45">
    <rdf:RDF>
      <cc:Work
         rdf:about="">
        <dc:format>image/svg+xml</dc:format>
        <dc:type
           rdf:resource="http://purl.org/dc/dcmitype/StillImage" />
        <dc:title></dc:title>
      </cc:Work>
    </rdf:RDF>
  </metadata>
  <defs
     id="defs43" />
  <sodipodi:namedview
     pagecolor="#ffffff"
     bordercolor="#666666"
     borderopacity="1"
     objecttolerance="10"
     gridtolerance="10"
     guidetolerance="10"
     inkscape:pageopacity="0"
     inkscape:pageshadow="2"
     inkscape:window-width="1920"
     inkscape:window-height="977"
     id="namedview41"
     showgrid="false"
     inkscape:zoom="12.078125"
     inkscape:cx="18.959897"
     inkscape:cy="32"
     inkscape:window-x="0"
     inkscape:window-y="0"
     inkscape:window-maximized="1"
     inkscape:current-layer="svg39" />
  <path
     d="m 64,43 c 0,6.075 -3.373,11 -10,11 H 10 C 3.373,54 0,49.075 0,43 V 21 C 0,14.925 3.373,10 10,10 h 44 c 6.627,0 10,4.925 10,11 v 22"
     id="path27"
     inkscape:connector-curvature="0"
     style="fill:#cd2a3e;fill-opacity:1" />
  <rect
     id="rect56"
     width="64"
     height="22.549809"
     x="0"
     y="20.450193"
     style="fill:#137a08;fill-opacity:1;stroke-width:0.97632498" />
  <g
     id="g869"
     transform="matrix(0.95973498,0,0,0.95973498,4.2804331,0.52611539)">
    <g
       transform="matrix(0.84660199,0,0,0.84660199,2.5072393,6.5637605)"
       id="g33">
      <path
         style="fill:#f9cb38;fill-rule:evenodd"
         inkscape:connector-curvature="0"
         id="path29"
         d="m 45.544,24.529 c 1.203,4.758 -0.042,11.19 -5.522,15.316 -5.142,3.871 -12.369,3.923 -17.52,0.166 -5.59,-4.077 -6.975,-10.569 -5.739,-15.501 0.203,3.99 1.646,7.353 4.498,10.05 2.849,2.7 6.265,4.02 10.185,3.958 7.472,-0.113 13.813,-6.116 14.1,-13.991" />
      <path
         style="fill:#f9cb38;fill-rule:evenodd"
         inkscape:connector-curvature="0"
         id="path31"
         d="m 25.852,22.4 c 0.111,0 0.227,0 0.339,0 1.12,0 2.243,-0.01 3.363,0.005 0.259,0.005 0.356,-0.085 0.432,-0.321 0.342,-1.094 0.705,-2.182 1.061,-3.273 0.025,-0.08 0.058,-0.16 0.11,-0.31 0.116,0.348 0.213,0.632 0.306,0.918 0.293,0.903 0.591,1.804 0.875,2.712 0.064,0.205 0.164,0.274 0.381,0.273 1.148,-0.01 2.298,-0.004 3.444,-0.004 0.1,0 0.195,0 0.292,0 0.011,0.016 0.018,0.031 0.027,0.048 -0.075,0.054 -0.146,0.11 -0.218,0.165 -0.922,0.67 -1.84,1.345 -2.77,2 -0.205,0.146 -0.268,0.272 -0.182,0.528 0.398,1.167 0.773,2.345 1.172,3.571 -0.106,-0.065 -0.173,-0.101 -0.234,-0.145 -0.951,-0.688 -1.902,-1.374 -2.849,-2.075 -0.18,-0.134 -0.305,-0.143 -0.491,-0.004 -0.938,0.694 -1.885,1.375 -2.826,2.06 -0.064,0.046 -0.133,0.09 -0.244,0.169 0.027,-0.113 0.041,-0.184 0.061,-0.25 0.364,-1.116 0.723,-2.233 1.097,-3.347 0.074,-0.223 0.038,-0.35 -0.157,-0.488 -0.924,-0.653 -1.832,-1.322 -2.746,-1.985 -0.087,-0.064 -0.173,-0.127 -0.258,-0.189 0.003,-0.021 0.007,-0.043 0.015,-0.061" />
    </g>
  </g>
</svg>
