<svg width="100" height="100" viewBox="0 0 100 100" fill="none" xmlns="http://www.w3.org/2000/svg">
<g clip-path="url(#clip0_4188_1684)">
<g clip-path="url(#clip1_4188_1684)">
<g clip-path="url(#clip2_4188_1684)">
<path d="M84.2932 50.0001C84.2932 31.0701 68.9296 15.7065 49.9996 15.7065C31.0696 15.7065 15.7061 31.0701 15.7061 50.0001C15.7061 68.9301 31.0696 84.2936 49.9996 84.2936C68.9296 84.2936 84.2932 68.9301 84.2932 50.0001ZM74.3023 50.0001C74.3023 63.3974 63.397 74.3028 49.9996 74.3028C36.6023 74.3028 25.7198 63.3974 25.7198 50.0001C25.7198 36.6027 36.6251 25.7203 49.9996 25.7203C63.397 25.7203 74.3023 36.6027 74.3023 50.0001Z" fill="white"/>
<path d="M50.0004 66.2094C41.0613 66.2094 33.791 58.9391 33.791 50C33.791 41.0608 41.0613 33.7905 50.0004 33.7905C58.9396 33.7905 66.2099 41.0608 66.2099 50C66.2099 58.9391 58.9396 66.2094 50.0004 66.2094ZM50.0004 38.363C43.5761 38.363 38.3635 43.5756 38.3635 50C38.3635 56.4243 43.5761 61.6369 50.0004 61.6369C56.4248 61.6369 61.6374 56.4243 61.6374 50C61.6374 43.5756 56.4248 38.363 50.0004 38.363Z" fill="white"/>
</g>
</g>
</g>
<defs>
<clipPath id="clip0_4188_1684">
<rect width="100" height="100" fill="white"/>
</clipPath>
<clipPath id="clip1_4188_1684">
<rect width="100" height="100" fill="white"/>
</clipPath>
<clipPath id="clip2_4188_1684">
<rect width="100" height="100" fill="white"/>
</clipPath>
</defs>
</svg>
