<svg width="100" height="100" viewBox="0 0 100 100" fill="none" xmlns="http://www.w3.org/2000/svg">
<g clip-path="url(#clip0_4188_1738)">
<g clip-path="url(#clip1_4188_1738)">
<g clip-path="url(#clip2_4188_1738)">
<path d="M84.2932 50.0001C84.2932 31.0701 68.9296 15.7065 49.9996 15.7065C31.0696 15.7065 15.7061 31.0701 15.7061 50.0001C15.7061 68.9301 31.0696 84.2936 49.9996 84.2936C68.9296 84.2936 84.2932 68.9301 84.2932 50.0001ZM74.3023 50.0001C74.3023 63.3974 63.3969 74.3028 49.9996 74.3028C36.6023 74.3028 25.7198 63.3974 25.7198 50.0001C25.7198 36.6027 36.6251 25.7203 49.9996 25.7203C63.3969 25.7203 74.3023 36.6027 74.3023 50.0001Z" fill="white"/>
<path d="M40.832 61.454C34.522 61.454 29.3779 56.31 29.3779 49.9999C29.3779 43.6899 34.522 38.5459 40.832 38.5459C47.142 38.5459 52.286 43.6899 52.286 49.9999C52.286 56.31 47.142 61.454 40.832 61.454ZM40.832 43.1184C37.0368 43.1184 33.9504 46.2048 33.9504 49.9999C33.9504 53.7951 37.0368 56.8815 40.832 56.8815C44.6271 56.8815 47.7135 53.7951 47.7135 49.9999C47.7135 46.2048 44.6271 43.1184 40.832 43.1184Z" fill="white"/>
<path d="M74.3257 52.2863H50.0001C48.7427 52.2863 47.7139 51.2575 47.7139 50.0001C47.7139 48.7427 48.7427 47.7139 50.0001 47.7139H74.3257C75.5831 47.7139 76.6119 48.7427 76.6119 50.0001C76.6119 51.2575 75.5831 52.2863 74.3257 52.2863Z" fill="white"/>
</g>
</g>
</g>
<defs>
<clipPath id="clip0_4188_1738">
<rect width="100" height="100" fill="white"/>
</clipPath>
<clipPath id="clip1_4188_1738">
<rect width="100" height="100" fill="white"/>
</clipPath>
<clipPath id="clip2_4188_1738">
<rect width="100" height="100" fill="white"/>
</clipPath>
</defs>
</svg>
