<svg width="100" height="100" viewBox="0 0 100 100" fill="none" xmlns="http://www.w3.org/2000/svg">
<g clip-path="url(#clip0_4188_1749)">
<g clip-path="url(#clip1_4188_1749)">
<g clip-path="url(#clip2_4188_1749)">
<path d="M84.2932 50.0001C84.2932 31.0701 68.9296 15.7065 49.9996 15.7065C31.0696 15.7065 15.7061 31.0701 15.7061 50.0001C15.7061 68.9301 31.0696 84.2936 49.9996 84.2936C68.9296 84.2936 84.2932 68.9301 84.2932 50.0001ZM74.3023 50.0001C74.3023 63.3974 63.3969 74.3028 49.9996 74.3028C36.6023 74.3028 25.7198 63.3974 25.7198 50.0001C25.7198 36.6027 36.6251 25.7203 49.9996 25.7203C63.3969 25.7203 74.3023 36.6027 74.3023 50.0001Z" fill="white"/>
<path d="M70.8052 44.4904C70.2565 42.2956 69.4106 40.2151 68.2904 38.3404C66.4842 35.2997 63.9694 32.7391 61.0201 30.9102C62.0489 32.602 62.7119 34.5224 62.9177 36.6029C62.9634 37.0601 62.9863 37.5402 62.9863 37.9975C62.9863 38.409 62.9634 38.8205 62.9406 39.2321C62.5062 43.9874 59.6941 48.0112 55.7389 50.0231C54.4358 50.6861 53.0183 51.1205 51.5322 51.3034C51.5322 51.3263 51.5322 51.372 51.5322 51.3948C52.1495 56.1502 55.7618 59.9225 60.3342 60.6084C60.8372 60.677 61.3402 60.7227 61.8432 60.7227C62.209 60.7227 62.5519 60.6998 62.8948 60.677C66.2785 60.334 69.1591 58.2993 70.8052 55.4186C71.2396 53.6811 71.4454 51.8521 71.4454 49.9774C71.4682 48.1027 71.2396 46.2508 70.8052 44.4904Z" fill="white"/>
<path d="M38.4318 36.5798C38.8433 36.5798 39.2548 36.6027 39.6663 36.6484C44.2845 37.1057 48.2169 40.0778 50.1373 44.2387C50.7775 45.6105 51.189 47.1423 51.3262 48.7198C51.3719 48.7198 51.4405 48.6969 51.4862 48.6969C56.1044 48.011 59.7624 44.1473 60.3111 39.3233C60.3568 38.8889 60.3797 38.4546 60.3797 38.0202C60.3797 37.5629 60.3568 37.1057 60.2882 36.6713C59.831 32.9447 57.5447 29.8126 54.3897 28.2579C52.9722 27.9379 51.4862 27.7778 49.9544 27.7778C48.4455 27.7778 46.9594 27.9379 45.542 28.2579C43.1872 28.7609 40.9695 29.6754 38.9805 30.91C35.9169 32.8076 33.3563 35.4596 31.5273 38.6146C33.1734 37.5401 35.0482 36.8542 37.06 36.6484C37.5401 36.6027 37.9974 36.5798 38.4318 36.5798Z" fill="white"/>
<path d="M37.037 62.0941C37.037 61.614 37.0599 61.1339 37.1056 60.6767C37.5857 56.0127 40.3749 52.0347 44.2844 50.0457C45.6561 49.3369 47.1879 48.8797 48.7654 48.7196C48.7883 48.7196 48.834 48.7196 48.8569 48.7196C48.834 48.7196 48.7883 48.7196 48.7654 48.6968C48.2167 43.7585 44.4216 39.8262 39.6433 39.2546C39.2318 39.2089 38.8432 39.186 38.4316 39.186C37.9744 39.186 37.54 39.2089 37.1056 39.2775C33.4934 39.7576 30.4755 42.1581 28.9895 45.4503C28.6923 46.9135 28.5322 48.4224 28.5322 49.9771C28.5322 51.5089 28.6923 52.9949 28.9666 54.4352C29.4467 56.9044 30.3384 59.2135 31.5272 61.2939C33.3333 64.449 35.871 67.101 38.9117 68.9986C37.9287 67.3067 37.2885 65.3634 37.1056 63.3058C37.0599 62.9172 37.037 62.5057 37.037 62.0941Z" fill="white"/>
<path d="M61.8428 63.3971C61.3398 63.3971 60.8368 63.3742 60.3567 63.3056C55.8528 62.7798 52.0348 59.8306 50.1372 55.7382C49.5199 54.3893 49.1084 52.9261 48.9484 51.3715C48.9484 51.3715 48.9484 51.3715 48.9484 51.3486C48.9255 51.3486 48.9026 51.3486 48.8798 51.3486C48.8341 51.3486 48.8112 51.3486 48.7655 51.3486V51.3715C44.0558 51.9431 40.3064 55.8068 39.6891 60.6765C39.6205 61.1337 39.5977 61.6138 39.5977 62.0939C39.5977 62.5055 39.6205 62.9398 39.6662 63.3285C40.0778 66.9636 42.2268 70.0272 45.2218 71.6504C46.7536 72.0162 48.3768 72.1991 50.0229 72.1991C51.669 72.1991 53.2694 72.0162 54.824 71.6504C57.0874 71.1246 59.1907 70.2101 61.1112 69.0212C64.0604 67.1694 66.5295 64.6317 68.3128 61.591C66.6896 62.5512 64.8606 63.1685 62.9173 63.3285C62.5515 63.3742 62.2086 63.3971 61.8428 63.3971Z" fill="white"/>
</g>
</g>
</g>
<defs>
<clipPath id="clip0_4188_1749">
<rect width="100" height="100" fill="white"/>
</clipPath>
<clipPath id="clip1_4188_1749">
<rect width="100" height="100" fill="white"/>
</clipPath>
<clipPath id="clip2_4188_1749">
<rect width="100" height="100" fill="white"/>
</clipPath>
</defs>
</svg>
